HIERARCHY
ROOT root
{
	OFFSET 0.000000 0.000000 0.000000
	CHANNELS 6 Xposition Yposition Zposition Zrotation Yrotation Xrotation
	JOINT lhip
	{
		OFFSET 0.058581 -0.082280 -0.017664
		CHANNELS 3 Zrotation Yrotation Xrotation
		JOINT lknee
		{
			OFFSET 0.043451 -0.386469 0.008037
			CHANNELS 3 Zrotation Yrotation Xrotation
			JOINT lankle
			{
				OFFSET -0.014790 -0.426874 -0.037428
				CHANNELS 3 Zrotation Yrotation Xrotation
				JOINT ltoe
				{
					OFFSET 0.041054 -0.060286 0.122042
					CHANNELS 3 Zrotation Yrotation Xrotation
					End Site
					{
						OFFSET 0.000000 0.000000 0.000000
					}
				}
			}
		}
	}
	JOINT rhip
	{
		OFFSET -0.060310 -0.090513 -0.013543
		CHANNELS 3 Zrotation Yrotation Xrotation
		JOINT rknee
		{
			OFFSET -0.043257 -0.383688 -0.004843
			CHANNELS 3 Zrotation Yrotation Xrotation
			JOINT rankle
			{
				OFFSET 0.019056 -0.420046 -0.034562
				CHANNELS 3 Zrotation Yrotation Xrotation
				JOINT rtoe
				{
					OFFSET -0.034840 -0.062106 0.130323
					CHANNELS 3 Zrotation Yrotation Xrotation
					End Site
					{
						OFFSET 0.000000 0.000000 0.000000
					}
				}
			}
		}
	}
	JOINT lowerback
	{
		OFFSET 0.004439 0.124404 -0.038385
		CHANNELS 3 Zrotation Yrotation Xrotation
		JOINT upperback
		{
			OFFSET 0.004488 0.137956 0.026820
			CHANNELS 3 Zrotation Yrotation Xrotation
			JOINT chest
			{
				OFFSET -0.002265 0.056032 0.002855
				CHANNELS 3 Zrotation Yrotation Xrotation
				JOINT lowerneck
				{
					OFFSET -0.013390 0.211636 -0.033468
					CHANNELS 3 Zrotation Yrotation Xrotation
					JOINT upperneck
					{
						OFFSET 0.010113 0.088937 0.050410
						CHANNELS 3 Zrotation Yrotation Xrotation
						End Site
						{
							OFFSET 0.000000 0.000000 0.000000
						}
					}
				}
				JOINT lclavicle
				{
					OFFSET 0.071702 0.114000 -0.018898
					CHANNELS 3 Zrotation Yrotation Xrotation
					JOINT lshoulder
					{
						OFFSET 0.122921 0.045205 -0.019046
						CHANNELS 3 Zrotation Yrotation Xrotation
						JOINT lelbow
						{
							OFFSET 0.255332 -0.015649 -0.022946
							CHANNELS 3 Zrotation Yrotation Xrotation
							JOINT lwrist
							{
								OFFSET 0.265709 0.012698 -0.007375
								CHANNELS 3 Zrotation Yrotation Xrotation
								End Site
								{
									OFFSET 0.000000 0.000000 0.000000
								}
							}
						}
					}
				}
				JOINT rclavicle
				{
					OFFSET -0.082954 0.112472 -0.023707
					CHANNELS 3 Zrotation Yrotation Xrotation
					JOINT rshoulder
					{
						OFFSET -0.113228 0.046853 -0.008472
						CHANNELS 3 Zrotation Yrotation Xrotation
						JOINT relbow
						{
							OFFSET -0.260127 -0.014369 -0.031269
							CHANNELS 3 Zrotation Yrotation Xrotation
							JOINT rwrist
							{
								OFFSET -0.269108 0.006794 -0.006027
								CHANNELS 3 Zrotation Yrotation Xrotation
								End Site
								{
									OFFSET 0.000000 0.000000 0.000000
								}
							}
						}
					}
				}
			}
		}
	}
}
MOTION
Frames: 16
Frame Time: 0.033333
-1.207425 0.797012 0.989697 -175.140655 2.456712 80.268705 -0.635773 1.601599 11.957938 -3.089494 -17.173609 7.090475 6.229566 9.207607 -14.543228 0.000000 -0.000000 0.000000 -2.671919 -0.072727 -21.963466 0.324915 -11.571944 37.713930 6.908986 -7.854905 -5.343134 0.000000 -0.000000 0.000000 0.732309 -4.912494 17.513168 2.601451 -0.025726 -0.166082 0.251309 -2.305755 3.765468 2.962516 3.403026 6.546698 -3.152384 -1.591230 17.696117 -26.755255 1.907498 3.700756 -54.358942 -11.411637 8.443845 11.435221 -31.984245 -0.104137 -3.108679 -3.925809 -6.597115 28.986186 1.196408 2.515749 55.533254 5.841001 13.305687 -15.248149 23.729761 -10.601891 5.868526 3.521485 -4.702059 
-1.206430 0.820755 0.986932 -174.399154 1.929656 80.927725 -0.705931 1.927621 12.508309 -3.480717 -17.161176 7.695159 5.418439 8.263376 -15.235629 0.000000 -0.000000 0.000000 -2.534526 -1.328418 -21.761591 1.425334 -9.246032 26.227686 7.306793 -6.878099 -3.652878 0.000000 -0.000000 0.000000 -0.027629 -4.798076 17.226575 2.622221 -0.813816 -0.036391 0.747166 -2.671440 3.715370 2.591506 3.523759 6.344836 -2.723527 -1.638295 17.506407 -26.398231 1.672410 3.683307 -54.465139 -11.838311 8.654210 11.621451 -32.149152 0.152659 -2.377971 -4.422576 -6.501242 28.622831 1.265290 2.288046 55.859224 6.546817 13.426064 -15.192632 24.174204 -10.805610 4.901220 3.563215 -5.775189 
-1.204273 0.847232 0.984205 -174.358379 2.109842 81.317415 0.214101 2.393044 13.719973 -3.867529 -17.090290 7.925994 4.676827 7.785354 -16.265432 0.000000 -0.000000 0.000000 -1.821462 -1.080481 -20.721112 1.738509 -7.632263 16.504620 8.363904 -5.382746 -4.058245 0.000000 -0.000000 0.000000 0.232858 -4.620075 16.786611 2.642808 -1.287135 0.283377 0.933461 -2.664567 3.494398 2.476464 3.570642 6.655767 -2.412968 -1.838172 17.283394 -26.128732 1.350135 3.846907 -54.645802 -11.901338 8.876768 11.470632 -32.279729 0.243495 -1.777011 -4.754880 -6.611447 28.443900 1.392531 2.472532 55.980627 6.740078 13.318033 -15.410080 24.905122 -10.739490 4.065643 3.647349 -6.356050 
-1.204025 0.874639 0.980363 -173.710064 1.264038 81.730991 -0.399106 2.811542 14.530190 -3.944815 -17.132906 8.992707 4.482440 7.399153 -16.945542 0.000000 -0.000000 0.000000 -2.209658 -2.188106 -19.733047 1.699995 -5.719556 9.812649 8.984845 -4.906960 -4.318363 0.000000 -0.000000 0.000000 -0.104524 -4.659441 16.122313 2.390754 -1.755902 0.437452 0.828569 -2.804021 3.568751 2.331624 3.508557 6.694201 -2.163295 -1.862084 17.281091 -26.153078 1.109105 3.771428 -54.384537 -12.066068 8.978609 10.931695 -31.891561 0.513677 -1.764065 -4.916306 -5.799271 28.442782 1.397420 2.306441 56.096907 6.934472 13.148728 -15.488759 25.115613 -10.986046 4.041698 3.594837 -6.429088 
-1.200587 0.904182 0.977921 -173.022724 1.864120 81.728642 1.033233 2.904996 15.974552 -4.357847 -17.692637 9.954961 3.608449 7.134379 -17.064275 0.000000 -0.000000 0.000000 -2.025929 -1.634476 -18.648621 2.248808 -7.923954 8.418863 9.708822 -5.063942 -4.661927 0.000000 -0.000000 0.000000 0.462722 -4.945978 15.946390 2.592003 -1.915131 0.597185 0.969584 -2.979834 3.401148 2.472655 3.326454 6.609900 -2.331568 -2.166714 17.444793 -26.438961 1.093096 3.813496 -54.417773 -11.977268 9.038726 10.588677 -31.770591 1.353336 -1.875137 -5.066013 -5.018179 28.523789 1.321855 2.105528 55.527664 6.755300 13.037741 -15.110374 25.437360 -10.201501 3.902409 3.599526 -5.924293 
-1.200181 0.933996 0.976446 -173.061393 0.709341 81.920283 -0.480630 3.104948 17.109587 -3.736002 -17.946150 11.219932 3.395845 7.486118 -16.698635 0.000000 -0.000000 0.000000 -2.365062 -2.563679 -18.614250 1.445230 -6.967609 11.071470 8.589105 -6.147126 -3.297551 0.000000 -0.000000 0.000000 -0.246106 -5.095382 15.224469 2.333448 -1.677241 0.889955 0.782690 -2.854310 3.551644 2.510488 2.868378 6.132257 -2.325625 -2.131208 17.687301 -26.631613 1.416358 3.538375 -54.511998 -11.718556 9.230139 10.282922 -31.467740 2.095017 -2.316857 -4.887969 -4.409964 28.687077 1.254663 2.029161 55.549323 6.863415 13.195453 -15.152196 24.852335 -10.813063 4.091333 3.753309 -5.828875 
-1.195246 0.966007 0.977089 -173.129458 1.190768 82.083935 0.360483 2.547888 17.913177 -3.971393 -18.361838 13.288501 2.272201 7.429072 -15.533217 0.000000 -0.000000 0.000000 -1.420171 -1.619836 -17.632552 0.934000 -8.788012 12.413701 7.447780 -6.551249 -0.101781 0.000000 -0.000000 0.000000 0.483354 -5.246659 14.718520 2.366750 -1.443993 0.789257 0.693482 -2.773691 3.518832 2.530816 2.164629 6.196513 -2.443273 -2.082035 17.573560 -26.994073 2.018657 3.588484 -54.847351 -11.246289 9.164130 10.206322 -31.020000 2.876389 -2.685417 -4.796795 -4.624254 28.715955 0.931127 1.976021 55.500441 6.756498 13.064674 -14.725708 23.982956 -10.398348 3.897045 3.566535 -6.346675 
-1.190471 0.999755 0.980814 -173.561004 1.412695 82.179942 0.472955 2.100718 18.173872 -4.128334 -18.349319 16.602701 1.006574 7.526090 -13.246956 0.000000 -0.000000 0.000000 -0.982519 -1.682378 -16.265891 1.731567 -7.777787 12.409417 7.077399 -6.352090 3.959223 0.000000 -0.000000 0.000000 0.967694 -5.071693 13.683460 2.535887 -1.190559 1.497213 0.617419 -2.591331 3.284373 2.109118 1.669975 6.464721 -2.239925 -1.796806 17.457436 -27.689867 2.489002 3.632707 -55.180079 -10.679014 9.336700 10.233920 -29.898618 2.833047 -3.200574 -4.631486 -4.761363 28.870646 0.647240 2.252439 55.143924 6.739763 13.068955 -14.466189 22.715352 -10.525785 3.818299 3.328147 -6.485959 
-1.184674 1.035221 0.985580 -174.570535 1.960157 82.116148 0.955930 1.940351 17.870404 -4.567786 -18.118715 21.110934 -0.749161 7.058834 -9.621941 0.000000 -0.000000 0.000000 0.117215 -1.214003 -14.478414 2.329096 -7.074511 13.099200 4.418661 -5.422950 3.724505 0.000000 -0.000000 0.000000 1.703291 -4.619248 12.719425 2.717124 -0.893810 2.034609 0.545092 -2.358247 3.150323 1.973139 1.552461 6.815788 -2.308292 -1.384781 16.976491 -27.978762 3.237362 3.549358 -55.950094 -9.668728 9.460890 10.303544 -28.903322 3.262898 -3.790041 -4.341739 -5.154920 28.803214 0.400371 2.457525 55.035346 6.620409 12.720934 -13.872539 21.297794 -10.162842 4.200457 2.913201 -7.026376 
-1.180543 1.069847 0.991261 -175.522208 1.604828 81.669634 -0.179237 1.615514 16.241918 -4.838290 -16.809808 27.908094 -2.663961 6.543279 -3.614729 0.000000 -0.000000 0.000000 0.440652 -1.875050 -11.784392 2.622558 -5.433283 13.267899 2.886205 -4.460107 2.619286 0.000000 -0.000000 0.000000 1.932196 -3.897077 12.402971 2.611353 -0.822252 2.532281 0.219434 -2.119050 2.831385 1.802087 1.078987 6.836961 -1.953875 -1.570212 16.896415 -28.213782 3.584920 3.669702 -56.132170 -8.811003 9.593247 9.869552 -27.755551 3.660595 -4.806518 -4.073014 -5.153087 28.838083 0.408089 2.575655 55.051858 6.338700 12.390423 -13.365134 19.713877 -10.142337 4.660023 2.795856 -7.725722 
-1.176394 1.102024 0.995891 -175.997813 1.305018 81.560094 -1.197940 0.446132 12.372133 -6.297160 -14.855986 36.544968 -3.779952 5.920889 4.849718 0.000000 -0.000000 0.000000 1.081565 -1.920797 -9.290745 2.234610 -4.001211 12.841682 0.178274 -4.179811 1.138715 0.000000 -0.000000 0.000000 1.775008 -3.230643 12.129468 2.772814 -0.995450 2.605203 0.237803 -1.836730 2.544774 1.342268 0.661991 7.247519 -1.573479 -1.157069 16.253678 -28.333790 3.580646 4.028609 -56.329684 -7.909568 9.956686 9.389646 -26.997132 4.885810 -6.019110 -3.877000 -5.334120 28.391860 0.571414 3.136547 55.128360 6.043842 12.297022 -13.158122 19.096967 -9.595356 5.008021 2.686229 -8.571943 
-1.173440 1.132632 0.998629 -175.791661 0.547981 81.312404 -2.820638 -1.191556 8.165588 -8.012581 -13.220621 45.174750 -2.207328 5.350529 9.623972 0.000000 -0.000000 0.000000 0.774351 -3.160135 -6.899455 2.187092 -1.970252 12.703731 -0.941601 -4.767660 -0.208218 0.000000 -0.000000 0.000000 1.178949 -2.270394 11.831942 2.939406 -1.463342 2.903964 0.161024 -1.767231 2.550343 0.983678 -0.306849 6.884077 -1.232236 -1.125126 15.845014 -28.462997 3.323487 4.334671 -56.109781 -7.466757 10.350571 8.664087 -27.003818 6.604017 -7.078039 -3.251183 -4.924575 28.388622 0.577232 3.047575 54.938017 5.591251 12.247573 -13.562187 18.962115 -9.256165 5.594954 2.505364 -8.416907 
-1.167821 1.163137 1.000428 -175.656358 1.430884 80.326346 -1.680173 -1.615917 4.731060 -8.385865 -11.316262 51.908065 -1.533927 6.177002 7.239073 0.000000 -0.000000 0.000000 1.661529 -3.167664 -3.326004 2.808553 -2.341900 11.912695 -1.306925 -4.553523 -1.775277 0.000000 -0.000000 0.000000 2.177782 -1.360991 12.732286 3.042787 -1.793741 2.778077 0.115816 -1.715094 2.770804 1.314744 -0.972137 6.201856 -1.047165 -1.420435 15.894536 -28.637198 2.897603 4.111843 -55.821745 -7.199113 10.132971 7.792002 -26.923420 8.100577 -7.679000 -3.047917 -3.962284 28.287678 0.877498 2.828452 54.506824 5.195924 11.846897 -13.440555 19.157909 -8.549213 5.753571 2.820158 -7.745514 
-1.162444 1.192712 1.002290 -175.896566 2.318924 79.129697 -0.312146 -1.754028 1.858601 -7.887470 -9.270157 55.591234 -0.005111 7.338483 3.773037 0.000000 -0.000000 0.000000 2.840872 -2.417137 0.573040 3.068266 -3.164815 10.734153 -0.890132 -4.321235 -3.185033 0.000000 -0.000000 0.000000 2.863408 -0.634918 13.770092 3.134150 -1.779827 2.537635 0.320288 -1.346342 3.084291 1.304277 -1.308796 6.469594 -1.005068 -1.262700 15.738403 -28.862304 2.467587 3.875904 -55.701633 -7.064433 9.826306 7.513943 -27.018472 8.881653 -8.284335 -2.826937 -3.310717 27.938178 1.257306 2.825740 54.184585 5.323138 11.274269 -13.220628 19.151583 -8.124674 5.808175 2.713516 -7.373911 
-1.158174 1.219390 1.004410 -176.845534 2.591108 78.732353 0.721457 -2.083785 -1.732074 -7.751644 -6.821745 57.084321 0.538604 7.322123 1.366481 0.000000 -0.000000 0.000000 3.315781 -3.040606 3.245615 3.339526 -2.647414 9.839476 -0.535727 -3.384101 -4.400046 0.000000 -0.000000 0.000000 3.065724 0.567993 14.151714 3.163988 -1.561333 2.140421 0.446369 -0.940062 3.108040 1.258776 -1.806117 7.100327 -0.828533 -1.816525 15.809298 -29.253387 2.326431 3.929534 -55.729299 -6.879438 9.474993 7.972002 -27.493647 8.426897 -7.798573 -2.642627 -3.437321 27.825337 1.596015 3.207574 53.882614 5.619925 10.825500 -13.266434 19.319113 -7.971091 5.340866 2.590933 -7.245535 
-1.156240 1.245077 1.006062 -177.683557 2.079404 78.184894 0.781529 -2.466161 -4.651372 -7.929888 -4.950158 56.406234 1.246270 7.277411 -2.834087 0.000000 -0.000000 0.000000 2.770615 -4.437811 5.729673 3.354550 -1.278548 9.558843 -0.457775 -2.482002 -6.044020 0.000000 -0.000000 0.000000 2.910794 1.913220 14.638677 2.770098 -1.567829 1.688432 0.379442 -0.638874 3.322212 1.467126 -1.578388 7.496140 -0.686526 -1.718055 16.152847 -29.263274 2.337528 4.035553 -55.932921 -6.673090 8.933895 8.591616 -28.497858 7.397814 -6.830353 -2.691617 -4.541751 27.423628 1.814607 3.468453 54.161825 6.092917 10.522609 -13.496986 19.611330 -7.999401 5.228167 2.899790 -7.315560 
